<svg id="explore_math" xmlns="http://www.w3.org/2000/svg" xmlns:xlink="http://www.w3.org/1999/xlink"
    viewBox="0 0 198.57 212.05">
    <defs>
        <style>
            .cls-1 {
                stroke: url(#linear-gradient-3);
            }

            .cls-1,
            .protractorHashes,
            .cls-3 {
                fill: none;
                stroke-miterlimit: 10;
            }

            .cls-4 {
                fill: url(#linear-gradient-2);
            }

            .calc-back {
                fill: #473b4b;
            }

            .d-pad {
                fill: #83839b;
            }

            .controller-yellowButt {
                fill: #e5c739;
            }

            .cls-10 {
                fill: #4d8d93;
            }

            .buttons-grey {
                fill: #b396b0;
            }

            .controller-blueButt {
                fill: #1f62e9;
            }

            .protractor-arm-front {
                fill: #cc563e;
            }

            .cls-14 {
                fill: #d25037;
            }

            .protractor-arm-pin {
                fill: #ccc;
            }

            .protractor-arm-back {
                fill: #a53d2b;
            }

            .protractorHashes {
                stroke: #55979c;
                stroke-width: 2px;
            }

            .cls-18 {
                fill: #99e5ea;
            }

            .cls-19 {
                fill: #2dc94f;
            }

            .cls-3 {
                opacity: .1;
                stroke: #000;
                stroke-width: 2.06px;
            }

            .calc-front {
                fill: url(#linear-gradient);
            }

            .controller-greenButt {
                fill: #369c73;
            }

            .controller-bg {
                fill: url(#linear-gradient-controller);
            }

            .cls-23 {
                fill: #dac0d7;
            }

            .controller-redButt {
                fill: #cb373d;
            }

            .controller-midButts {
                fill: #4c4c63;
            }
        </style>
        <linearGradient id="linear-gradient" x1="142.13" y1="-11.24" x2="140.25" y2="106.72"
            gradientTransform="translate(-6.24 31.83) rotate(-12.85) scale(.83 .95)" gradientUnits="userSpaceOnUse">
            <stop offset="0" stop-color="#a49aa8" />
            <stop offset="1" stop-color="#706075" />
        </linearGradient>
        <linearGradient id="linear-gradient-2" x1="123.76" y1="34.92" x2="114.41" y2="62.8"
            gradientTransform="translate(.35 9.07) scale(1 .87)" gradientUnits="userSpaceOnUse">
            <stop offset="0" stop-color="#58d1c3" />
            <stop offset="1" stop-color="#4ca4a4" />
        </linearGradient>
        <linearGradient id="linear-gradient-3" x1="78.33" y1="52.24" x2="160.03" y2="52.24"
            gradientTransform="translate(14.93 -25.64) rotate(13.09)" xlink:href="#linear-gradient" />
        <linearGradient id="linear-gradient-controller" x1="72.27" y1="149.45" x2="80.04" y2="205.52"
            gradientUnits="userSpaceOnUse">
            <stop offset="0" stop-color="#30343f" />
            <stop offset=".46" stop-color="#2d313c" />
            <stop offset=".71" stop-color="#262934" />
            <stop offset=".9" stop-color="#191c27" />
            <stop offset="1" stop-color="#0f121d" />
        </linearGradient>
    </defs>
    <g id="main">
        <g id="protractor">
            <g id="protractorBase">
                <path id="protractorBase_bottom" class="cls-10"
                    d="M101.71,3.57l-3.61,1.19,1.1,.67C56.27-1.11,15.12,26.1,5.61,68.5c-9.64,42.98,16.76,85.76,59.38,97.53,2.21,.61,4.47-.75,4.97-2.95L104.19,10.48c.16-.72,.1-1.44-.12-2.1M55.1,141.76S11.1,119.76,24.1,71.76,83.1,24.76,83.1,24.76l-28,117Z" />
                <path id="protractorBase_top" class="cls-18"
                    d="M98.96,1.69C55.4-5.88,13.25,21.52,3.61,64.5c-9.64,42.98,16.76,85.76,59.38,97.53,2.21,.61,4.47-.75,4.97-2.95L102.19,6.48c.49-2.2-.97-4.4-3.23-4.79ZM53.1,137.76S9.1,115.76,22.1,67.76,81.1,20.76,81.1,20.76l-28,117Z" />
                <g id="protractorHashes-group">
                    <line class="protractorHashes" x1="84.79" y1=".18" x2="82.1" y2="14.76" />
                    <line class="protractorHashes" x1="71.64" y1="1.79" x2="72.56" y2="8.73" />
                    <line class="protractorHashes" x1="57.43" y1="4.63" x2="60.77" y2="13.89" />
                    <line class="protractorHashes" x1="46.25" y1="154.59" x2="50.44" y2="141.18" />
                    <line class="protractorHashes" x1="5.37" y1="61.99" x2="19.64" y2="66.02" />
                    <line class="protractorHashes" x1="32.06" y1="18.47" x2="42.12" y2="29.36" />
                    <line class="protractorHashes" x1="9.45" y1="116.21" x2="22.73" y2="109.62" />
                    <line class="protractorHashes" x1="44.42" y1="10.84" x2="47.76" y2="16.99" />
                    <line class="protractorHashes" x1="24.89" y1="25.75" x2="29.81" y2="30.73" />
                    <line class="protractorHashes" x1="15.27" y1="36.59" x2="23.53" y2="41.96" />
                    <line class="protractorHashes" x1="8.65" y1="49.39" x2="15.03" y2="52.29" />
                    <line class="protractorHashes" x1="16.21" y1="127.24" x2="22.16" y2="123.56" />
                    <line class="protractorHashes" x1="24.62" y1="139.04" x2="31.71" y2="132.2" />
                    <line class="protractorHashes" x1="35.62" y1="148.36" x2="39.87" y2="142.79" />
                    <line class="protractorHashes" x1="1.71" y1="74.7" x2="8.69" y2="75.19" />
                    <line class="protractorHashes" x1="1.65" y1="89.19" x2="11.4" y2="87.77" />
                    <line class="protractorHashes" x1="5.15" y1="103.18" x2="11.84" y2="101.14" />
                </g>
            </g>
            <g id="protractorArm">
                <path class="protractor-arm-back"
                    d="M70.78,82.7l-.71,.03c-2.94-6.35-14.8-12.29-29.97-20.96-6.03-3.45-29.86-18.75-37.62-21.01l.29-.29L0,38.06v3s0,0,0,0c-.18,4.04,29.2,26.78,33.08,29.69,14.24,10.68,33,27,37,18,.37-.83,.58-1.64,.65-2.43h0s0-.06,0-.06c0-.05,.01-.1,.02-.16,.02-.27,0-.54,0-.81l.02-2.61Z" />
                <path class="protractor-arm-front"
                    d="M.1,37.76c2-3,33,17,40,21,19.82,11.32,34,18,30,27s-22.76-7.32-37-18C29.1,64.76-1.9,40.76,.1,37.76Z" />
                <circle class="protractor-arm-pin" cx="64.1" cy="81.76" r="3" />
            </g>
        </g>
        <g id="calculator">
            <path class="calc-back"
                d="M192.58,160.39l-6.48-4.63,.96,7.26L156.88,28.04c-.28-1.26-1.54-2.05-2.8-1.77l-83.31,19h0l-4.57-5.04-4.79,7.71c-.12,.14-.21,.3-.29,.47l-.02,.03h0c-.2,.45-.27,.96-.15,1.48l32.41,139.29c.29,1.25,1.54,2.03,2.79,1.75l90.16-20.63c.7-.16,1.25-.63,1.55-1.22h0l4.9-7.8c.19-.3,.11-.7-.18-.9Z" />
            <path class="calc-front"
                d="M191.31,162.32l-90.16,20.63c-1.25,.29-2.5-.49-2.79-1.75L65.95,41.92c-.29-1.26,.49-2.52,1.75-2.8l91.38-20.85c1.26-.29,2.51,.5,2.8,1.77l31.18,139.5c.28,1.25-.51,2.5-1.76,2.78Z" />
            <g id="buttons">
                <rect class="buttons-grey" x="129.1" y="80.76" width="16" height="16" rx="2.66" ry="2.66"
                    transform="translate(-16.54 33.37) rotate(-13.09)" />
                <rect class="buttons-grey" x="134.1" y="100.76" width="16" height="16" rx="2.66" ry="2.66"
                    transform="translate(-20.95 35.02) rotate(-13.09)" />
                <rect class="cls-19" x="150.1" y="75.76" width="16" height="16" rx="2.66" ry="2.66"
                    transform="translate(-14.87 38) rotate(-13.09)" />
                <rect class="cls-14" x="155.1" y="95.76" width="16" height="16" rx="2.66" ry="2.66"
                    transform="translate(-19.27 39.65) rotate(-13.09)" />
                <rect class="cls-23" x="162.46" y="115.49" width="16" height="36.86" rx="2.66" ry="2.66"
                    transform="translate(-25.91 42.1) rotate(-13.09)" />
                <rect class="buttons-grey" x="139.1" y="120.76" width="16" height="16" rx="2.66" ry="2.66"
                    transform="translate(-25.35 36.68) rotate(-13.09)" />
                <rect class="buttons-grey" x="144.1" y="140.76" width="16" height="16" rx="2.66" ry="2.66"
                    transform="translate(-29.75 38.33) rotate(-13.09)" />
                <rect class="buttons-grey" x="109.1" y="85.76" width="16" height="16" rx="2.66" ry="2.66"
                    transform="translate(-18.2 28.97) rotate(-13.09)" />
                <rect class="buttons-grey" x="114.1" y="105.76" width="16" height="16" rx="2.66" ry="2.66"
                    transform="translate(-22.6 30.62) rotate(-13.09)" />
                <rect class="buttons-grey" x="119.1" y="125.76" width="16" height="16" rx="2.66" ry="2.66"
                    transform="translate(-27 32.27) rotate(-13.09)" />
                <rect class="buttons-grey" x="124.1" y="145.76" width="16" height="16" rx="2.66" ry="2.66"
                    transform="translate(-31.4 33.93) rotate(-13.09)" />
                <rect class="buttons-grey" x="88.1" y="90.76" width="16" height="16" rx="2.66" ry="2.66"
                    transform="translate(-19.88 24.34) rotate(-13.09)" />
                <rect class="buttons-grey" x="93.1" y="110.76" width="16" height="16" rx="2.66" ry="2.66"
                    transform="translate(-24.28 25.99) rotate(-13.09)" />
                <rect class="buttons-grey" x="98.1" y="130.76" width="16" height="16" rx="2.66" ry="2.66"
                    transform="translate(-28.68 27.65) rotate(-13.09)" />
                <rect class="buttons-grey" x="103.1" y="150.76" width="16" height="16" rx="2.66" ry="2.66"
                    transform="translate(-33.08 29.3) rotate(-13.09)" />
            </g>
            <line id="calcLine" class="cls-3" x1="76.35" y1="86.76" x2="171.85" y2="64.76" />
            <rect id="screen" class="cls-4" x="80.68" y="35.72" width="77" height="33.05" rx="4.45" ry="4.45"
                transform="translate(-8.74 28.36) rotate(-13.09)" />
            <rect id="screenHousing" class="cls-1" x="80.68" y="35.72" width="77" height="33.05" rx="4.45" ry="4.45"
                transform="translate(-8.74 28.36) rotate(-13.09)" />
            <g id="numbersBG">
                <g>
                    <polygon
                        points="85.37 45.31 84.79 46.23 86.83 47.5 96.14 45.34 97.36 43.31 96.43 42.73 85.37 45.31" />
                    <polygon
                        points="98.66 55.52 88.96 57.77 88.09 59.24 89.57 60.16 99.26 57.91 100.14 56.44 98.66 55.52" />
                    <polygon
                        points="101.21 54.45 98.84 44.23 97.91 43.66 96.64 45.69 98.81 55.01 100.38 56.07 101.21 54.45" />
                    <polygon
                        points="86.19 57.94 83.82 47.73 84.39 46.8 86.43 48.07 88.6 57.38 87.66 59.03 86.19 57.94" />
                    <polygon
                        points="92.06 70.46 90.84 72.48 91.77 73.06 102.83 70.49 103.41 69.56 101.37 68.29 92.06 70.46" />
                    <polygon
                        points="86.99 61.35 89.36 71.56 90.29 72.14 91.56 70.1 89.39 60.79 87.82 59.73 86.99 61.35" />
                    <polygon
                        points="102.01 57.85 104.38 68.07 103.81 68.99 101.77 67.72 99.6 58.41 100.54 56.77 102.01 57.85" />
                </g>
                <g>
                    <polygon
                        points="102.37 41.31 101.79 42.23 103.83 43.5 113.14 41.34 114.36 39.31 113.43 38.73 102.37 41.31" />
                    <polygon
                        points="115.66 51.52 105.96 53.77 105.09 55.24 106.57 56.16 116.26 53.91 117.14 52.44 115.66 51.52" />
                    <polygon
                        points="118.21 50.45 115.84 40.23 114.91 39.66 113.64 41.69 115.81 51.01 117.38 52.07 118.21 50.45" />
                    <polygon
                        points="103.19 53.94 100.82 43.73 101.39 42.8 103.43 44.07 105.6 53.38 104.66 55.03 103.19 53.94" />
                    <polygon
                        points="109.06 66.46 107.84 68.48 108.77 69.06 119.83 66.49 120.41 65.56 118.37 64.29 109.06 66.46" />
                    <polygon
                        points="103.99 57.35 106.36 67.56 107.29 68.14 108.56 66.1 106.39 56.79 104.82 55.73 103.99 57.35" />
                    <polygon
                        points="119.01 53.85 121.38 64.07 120.81 64.99 118.77 63.72 116.6 54.41 117.54 52.77 119.01 53.85" />
                </g>
                <g>
                    <polygon
                        points="119.37 37.31 118.79 38.23 120.83 39.5 130.14 37.34 131.36 35.31 130.43 34.73 119.37 37.31" />
                    <polygon
                        points="132.66 47.52 122.96 49.77 122.09 51.24 123.57 52.16 133.26 49.91 134.14 48.44 132.66 47.52" />
                    <polygon
                        points="135.21 46.45 132.84 36.23 131.91 35.66 130.64 37.69 132.81 47.01 134.38 48.07 135.21 46.45" />
                    <polygon
                        points="120.19 49.94 117.82 39.73 118.39 38.8 120.43 40.07 122.6 49.38 121.66 51.03 120.19 49.94" />
                    <polygon
                        points="126.06 62.46 124.84 64.48 125.77 65.06 136.83 62.49 137.41 61.56 135.37 60.29 126.06 62.46" />
                    <polygon
                        points="120.99 53.35 123.36 63.56 124.29 64.14 125.56 62.1 123.39 52.79 121.82 51.73 120.99 53.35" />
                    <polygon
                        points="136.01 49.85 138.38 60.07 137.81 60.99 135.77 59.72 133.6 50.41 134.54 48.77 136.01 49.85" />
                </g>
                <g>
                    <polygon
                        points="136.37 33.31 135.79 34.23 137.83 35.5 147.14 33.34 148.36 31.31 147.43 30.73 136.37 33.31" />
                    <polygon
                        points="149.66 43.52 139.96 45.77 139.09 47.24 140.57 48.16 150.26 45.91 151.14 44.44 149.66 43.52" />
                    <polygon
                        points="152.21 42.45 149.84 32.23 148.91 31.66 147.64 33.69 149.81 43.01 151.38 44.07 152.21 42.45" />
                    <polygon
                        points="137.19 45.94 134.82 35.73 135.39 34.8 137.43 36.07 139.6 45.38 138.66 47.03 137.19 45.94" />
                    <polygon
                        points="143.06 58.46 141.84 60.48 142.77 61.06 153.83 58.49 154.41 57.56 152.37 56.29 143.06 58.46" />
                    <polygon
                        points="137.99 49.35 140.36 59.56 141.29 60.14 142.56 58.1 140.39 48.79 138.82 47.73 137.99 49.35" />
                    <polygon
                        points="153.01 45.85 155.38 56.07 154.81 56.99 152.77 55.72 150.6 46.41 151.54 44.77 153.01 45.85" />
                </g>
            </g>
            <g id="numbers_1" class="numbers">
                <g>
                    <polygon
                        points="136.37 33.31 135.79 34.23 137.83 35.5 147.14 33.34 148.36 31.31 147.43 30.73 136.37 33.31" />
                    <polygon
                        points="149.66 43.52 139.96 45.77 139.09 47.24 140.57 48.16 150.26 45.91 151.14 44.44 149.66 43.52" />
                    <polygon
                        points="152.21 42.45 149.84 32.23 148.91 31.66 147.64 33.69 149.81 43.01 151.38 44.07 152.21 42.45" />
                    <polygon
                        points="143.06 58.46 141.84 60.48 142.77 61.06 153.83 58.49 154.41 57.56 152.37 56.29 143.06 58.46" />
                    <polygon
                        points="137.99 49.35 140.36 59.56 141.29 60.14 142.56 58.1 140.39 48.79 138.82 47.73 137.99 49.35" />
                </g>
            </g>
            <g id="numbers_2" class="numbers">
                <g>
                    <polygon
                        points="119.37 37.31 118.79 38.23 120.83 39.5 130.14 37.34 131.36 35.31 130.43 34.73 119.37 37.31" />
                    <polygon
                        points="132.66 47.52 122.96 49.77 122.09 51.24 123.57 52.16 133.26 49.91 134.14 48.44 132.66 47.52" />
                    <polygon
                        points="135.21 46.45 132.84 36.23 131.91 35.66 130.64 37.69 132.81 47.01 134.38 48.07 135.21 46.45" />
                    <polygon
                        points="126.06 62.46 124.84 64.48 125.77 65.06 136.83 62.49 137.41 61.56 135.37 60.29 126.06 62.46" />
                    <polygon
                        points="120.99 53.35 123.36 63.56 124.29 64.14 125.56 62.1 123.39 52.79 121.82 51.73 120.99 53.35" />
                </g>
                <g>
                    <polygon
                        points="136.37 33.31 135.79 34.23 137.83 35.5 147.14 33.34 148.36 31.31 147.43 30.73 136.37 33.31" />
                    <polygon
                        points="152.21 42.45 149.84 32.23 148.91 31.66 147.64 33.69 149.81 43.01 151.38 44.07 152.21 42.45" />
                    <polygon
                        points="137.19 45.94 134.82 35.73 135.39 34.8 137.43 36.07 139.6 45.38 138.66 47.03 137.19 45.94" />
                    <polygon
                        points="143.06 58.46 141.84 60.48 142.77 61.06 153.83 58.49 154.41 57.56 152.37 56.29 143.06 58.46" />
                    <polygon
                        points="137.99 49.35 140.36 59.56 141.29 60.14 142.56 58.1 140.39 48.79 138.82 47.73 137.99 49.35" />
                    <polygon
                        points="153.01 45.85 155.38 56.07 154.81 56.99 152.77 55.72 150.6 46.41 151.54 44.77 153.01 45.85" />
                </g>
            </g>
            <g id="numbers_3" class="numbers">
                <g>
                    <polygon
                        points="102.37 41.31 101.79 42.23 103.83 43.5 113.14 41.34 114.36 39.31 113.43 38.73 102.37 41.31" />
                    <polygon
                        points="115.66 51.52 105.96 53.77 105.09 55.24 106.57 56.16 116.26 53.91 117.14 52.44 115.66 51.52" />
                    <polygon
                        points="118.21 50.45 115.84 40.23 114.91 39.66 113.64 41.69 115.81 51.01 117.38 52.07 118.21 50.45" />
                    <polygon
                        points="109.06 66.46 107.84 68.48 108.77 69.06 119.83 66.49 120.41 65.56 118.37 64.29 109.06 66.46" />
                    <polygon
                        points="103.99 57.35 106.36 67.56 107.29 68.14 108.56 66.1 106.39 56.79 104.82 55.73 103.99 57.35" />
                </g>
                <g>
                    <polygon
                        points="119.37 37.31 118.79 38.23 120.83 39.5 130.14 37.34 131.36 35.31 130.43 34.73 119.37 37.31" />
                    <polygon
                        points="135.21 46.45 132.84 36.23 131.91 35.66 130.64 37.69 132.81 47.01 134.38 48.07 135.21 46.45" />
                    <polygon
                        points="120.19 49.94 117.82 39.73 118.39 38.8 120.43 40.07 122.6 49.38 121.66 51.03 120.19 49.94" />
                    <polygon
                        points="126.06 62.46 124.84 64.48 125.77 65.06 136.83 62.49 137.41 61.56 135.37 60.29 126.06 62.46" />
                    <polygon
                        points="120.99 53.35 123.36 63.56 124.29 64.14 125.56 62.1 123.39 52.79 121.82 51.73 120.99 53.35" />
                    <polygon
                        points="136.01 49.85 138.38 60.07 137.81 60.99 135.77 59.72 133.6 50.41 134.54 48.77 136.01 49.85" />
                </g>
                <g>
                    <polygon
                        points="136.37 33.31 135.79 34.23 137.83 35.5 147.14 33.34 148.36 31.31 147.43 30.73 136.37 33.31" />
                    <polygon
                        points="149.66 43.52 139.96 45.77 139.09 47.24 140.57 48.16 150.26 45.91 151.14 44.44 149.66 43.52" />
                    <polygon
                        points="137.19 45.94 134.82 35.73 135.39 34.8 137.43 36.07 139.6 45.38 138.66 47.03 137.19 45.94" />
                    <polygon
                        points="143.06 58.46 141.84 60.48 142.77 61.06 153.83 58.49 154.41 57.56 152.37 56.29 143.06 58.46" />
                    <polygon
                        points="137.99 49.35 140.36 59.56 141.29 60.14 142.56 58.1 140.39 48.79 138.82 47.73 137.99 49.35" />
                    <polygon
                        points="153.01 45.85 155.38 56.07 154.81 56.99 152.77 55.72 150.6 46.41 151.54 44.77 153.01 45.85" />
                </g>
            </g>
            <g id="numbers_4" class="numbers">
                <g>
                    <polygon
                        points="85.37 45.31 84.79 46.23 86.83 47.5 96.14 45.34 97.36 43.31 96.43 42.73 85.37 45.31" />
                    <polygon
                        points="98.66 55.52 88.96 57.77 88.09 59.24 89.57 60.16 99.26 57.91 100.14 56.44 98.66 55.52" />
                    <polygon
                        points="101.21 54.45 98.84 44.23 97.91 43.66 96.64 45.69 98.81 55.01 100.38 56.07 101.21 54.45" />
                    <polygon
                        points="92.06 70.46 90.84 72.48 91.77 73.06 102.83 70.49 103.41 69.56 101.37 68.29 92.06 70.46" />
                    <polygon
                        points="86.99 61.35 89.36 71.56 90.29 72.14 91.56 70.1 89.39 60.79 87.82 59.73 86.99 61.35" />
                </g>
                <g>
                    <polygon
                        points="102.37 41.31 101.79 42.23 103.83 43.5 113.14 41.34 114.36 39.31 113.43 38.73 102.37 41.31" />
                    <polygon
                        points="118.21 50.45 115.84 40.23 114.91 39.66 113.64 41.69 115.81 51.01 117.38 52.07 118.21 50.45" />
                    <polygon
                        points="103.19 53.94 100.82 43.73 101.39 42.8 103.43 44.07 105.6 53.38 104.66 55.03 103.19 53.94" />
                    <polygon
                        points="109.06 66.46 107.84 68.48 108.77 69.06 119.83 66.49 120.41 65.56 118.37 64.29 109.06 66.46" />
                    <polygon
                        points="103.99 57.35 106.36 67.56 107.29 68.14 108.56 66.1 106.39 56.79 104.82 55.73 103.99 57.35" />
                    <polygon
                        points="119.01 53.85 121.38 64.07 120.81 64.99 118.77 63.72 116.6 54.41 117.54 52.77 119.01 53.85" />
                </g>
                <g>
                    <polygon
                        points="119.37 37.31 118.79 38.23 120.83 39.5 130.14 37.34 131.36 35.31 130.43 34.73 119.37 37.31" />
                    <polygon
                        points="132.66 47.52 122.96 49.77 122.09 51.24 123.57 52.16 133.26 49.91 134.14 48.44 132.66 47.52" />
                    <polygon
                        points="120.19 49.94 117.82 39.73 118.39 38.8 120.43 40.07 122.6 49.38 121.66 51.03 120.19 49.94" />
                    <polygon
                        points="126.06 62.46 124.84 64.48 125.77 65.06 136.83 62.49 137.41 61.56 135.37 60.29 126.06 62.46" />
                    <polygon
                        points="120.99 53.35 123.36 63.56 124.29 64.14 125.56 62.1 123.39 52.79 121.82 51.73 120.99 53.35" />
                    <polygon
                        points="136.01 49.85 138.38 60.07 137.81 60.99 135.77 59.72 133.6 50.41 134.54 48.77 136.01 49.85" />
                </g>
                <g>
                    <polygon
                        points="136.37 33.31 135.79 34.23 137.83 35.5 147.14 33.34 148.36 31.31 147.43 30.73 136.37 33.31" />
                    <polygon
                        points="149.66 43.52 139.96 45.77 139.09 47.24 140.57 48.16 150.26 45.91 151.14 44.44 149.66 43.52" />
                    <polygon
                        points="152.21 42.45 149.84 32.23 148.91 31.66 147.64 33.69 149.81 43.01 151.38 44.07 152.21 42.45" />
                    <polygon
                        points="137.19 45.94 134.82 35.73 135.39 34.8 137.43 36.07 139.6 45.38 138.66 47.03 137.19 45.94" />
                    <polygon
                        points="143.06 58.46 141.84 60.48 142.77 61.06 153.83 58.49 154.41 57.56 152.37 56.29 143.06 58.46" />
                    <polygon
                        points="137.99 49.35 140.36 59.56 141.29 60.14 142.56 58.1 140.39 48.79 138.82 47.73 137.99 49.35" />
                    <polygon
                        points="153.01 45.85 155.38 56.07 154.81 56.99 152.77 55.72 150.6 46.41 151.54 44.77 153.01 45.85" />
                </g>
            </g>
        </g>
        <g id="controller">
            <path class="controller-bg"
                d="M65.89,192.61h26.52s17.02,22.18,30.69,19.15c9-2,8-24.2,0-39s-13-17-15-18c-2.83-1.41-19.11-2.5-20.3-.5l-1.2,2-15.82,.02s-1.08-2.33-3.13-3.18-16.94-.15-18.5,0-13.56,10.15-18.56,22.15c-5.85,14.03-3.5,30.5,5.5,32.5,15.66,1.74,29.79-15.15,29.79-15.15Z" />
            <polygon class="d-pad"
                points="58.1 172.76 51.1 172.76 51.1 165.76 47.1 165.76 47.1 172.76 40.1 172.76 40.1 176.76 47.1 176.76 47.1 183.26 51.1 183.26 51.1 176.76 58.1 176.76 58.1 172.76" />
            <circle class="controller-redButt" cx="98.1" cy="174.76" r="4" />
            <circle class="controller-yellowButt" cx="106.1" cy="181.76" r="4" />
            <circle class="controller-blueButt" cx="114.1" cy="174.76" r="4" />
            <circle class="controller-greenButt" cx="106.1" cy="167.76" r="4" />
            <rect class="controller-midButts" x="70.1" y="171.76" width="15" height="5" rx="2.5" ry="2.5" />
            <rect class="controller-midButts" x="70.1" y="164.76" width="15" height="5" rx="2.5" ry="2.5" />
        </g>
    </g>
    <path id="star_big" class="star"
        d="M178.3,36.9l-2.1-4.9c-.07-.15-.18-.29-.32-.38l-4.54-3.03c-.55-.37-.5-1.2,.09-1.5l4.36-2.18c.2-.1,.35-.27,.42-.47l2.07-5.51c.28-.75,1.34-.75,1.63,0l2.07,5.51c.08,.21,.23,.37,.42,.47l4.36,2.18c.6,.3,.65,1.13,.09,1.5l-4.54,3.03c-.14,.09-.25,.23-.32,.38l-2.1,4.9c-.3,.7-1.3,.7-1.6,0Z" />
    <path id="star_little" class="star"
        d="M191.47,55.05l-1.67-3.9c-.05-.12-.14-.23-.25-.3l-3.61-2.41c-.44-.29-.4-.95,.07-1.19l3.46-1.73c.16-.08,.28-.21,.34-.38l1.64-4.38c.22-.6,1.07-.6,1.29,0l1.64,4.38c.06,.16,.18,.3,.34,.38l3.46,1.73c.47,.24,.52,.9,.07,1.19l-3.61,2.41c-.11,.07-.2,.18-.25,.3l-1.67,3.9c-.24,.56-1.03,.56-1.27,0Z" />
</svg>